<svg width="16" height="16" viewBox="0 0 16 16" fill="none" xmlns="http://www.w3.org/2000/svg">
<path d="M15 7.99968C15 8.93301 11.8656 12.6663 8 12.6663C4.13444 12.6663 1 8.93301 1 7.99968C1 7.06634 4.13444 3.33301 8 3.33301C11.8656 3.33301 15 7.06634 15 7.99968Z" stroke="#2028F9" stroke-width="1.4"/>
<path d="M10.3337 8.00033C10.3337 8.61916 10.0878 9.21266 9.65024 9.65024C9.21266 10.0878 8.61916 10.3337 8.00033 10.3337C7.38149 10.3337 6.78799 10.0878 6.35041 9.65024C5.91282 9.21266 5.66699 8.61916 5.66699 8.00033C5.66699 7.38149 5.91282 6.78799 6.35041 6.35041C6.78799 5.91282 7.38149 5.66699 8.00033 5.66699C8.61916 5.66699 9.21266 5.91282 9.65024 6.35041C10.0878 6.78799 10.3337 7.38149 10.3337 8.00033Z" fill="#2028F9"/>
</svg>
