<svg width="12" height="12" viewBox="0 0 12 12" fill="none" xmlns="http://www.w3.org/2000/svg">
<path fill-rule="evenodd" clip-rule="evenodd" d="M10.364 3.25856L10.8815 5.19056C10.9156 5.31741 10.9243 5.44973 10.9072 5.57995C10.89 5.71018 10.8474 5.83575 10.7818 5.94951C10.7161 6.06326 10.6287 6.16297 10.5245 6.24294C10.4203 6.3229 10.3014 6.38156 10.1745 6.41556L9.00004 6.73006V7.50006C9.00004 7.63267 9.05271 7.75984 9.14648 7.85361C9.24025 7.94738 9.36743 8.00006 9.50004 8.00006H10C10 7.86745 10.0527 7.74027 10.1465 7.6465C10.2403 7.55274 10.3674 7.50006 10.5 7.50006C10.6326 7.50006 10.7598 7.55274 10.8536 7.6465C10.9474 7.74027 11 7.86745 11 8.00006V9.00006C11 9.13267 10.9474 9.25984 10.8536 9.35361C10.7598 9.44738 10.6326 9.50006 10.5 9.50006C10.3674 9.50006 10.2403 9.44738 10.1465 9.35361C10.0527 9.25984 10 9.13267 10 9.00006H9.50004C9.10221 9.00006 8.72068 8.84202 8.43938 8.56072C8.15807 8.27941 8.00004 7.89788 8.00004 7.50006V6.99806L4.74404 7.87006C4.5341 7.92628 4.31155 7.91258 4.1101 7.83102C3.90864 7.74946 3.73924 7.60449 3.62754 7.41806L2.11954 4.90506C2.05986 4.80551 2.02411 4.69347 2.01509 4.57775C2.00607 4.46204 2.02402 4.34581 2.06755 4.23822C2.11107 4.13062 2.17897 4.03459 2.2659 3.9577C2.35284 3.8808 2.45643 3.82512 2.56854 3.79506L8.52704 2.19856C8.91127 2.09562 9.32065 2.14952 9.66515 2.3484C10.0096 2.54728 10.261 2.87434 10.364 3.25856ZM1.41654 5.15756C1.52197 5.09528 1.6466 5.07387 1.76677 5.09737C1.88695 5.12087 1.99433 5.18765 2.06854 5.28506L2.10104 5.33356L2.91354 6.70806C2.97748 6.81781 2.99726 6.94778 2.96886 7.07159C2.94045 7.19539 2.866 7.30374 2.7606 7.37464C2.65521 7.44554 2.52678 7.47367 2.4014 7.45332C2.27602 7.43296 2.16309 7.36565 2.08554 7.26506L2.05304 7.21706L1.24054 5.84206C1.2071 5.78553 1.18513 5.72296 1.17588 5.65794C1.16663 5.59292 1.17028 5.52671 1.18663 5.4631C1.20297 5.39948 1.23169 5.33972 1.27114 5.2872C1.31058 5.23469 1.35999 5.19097 1.41654 5.15756ZM8.78604 3.16406L3.14754 4.67456L4.48454 6.90456L9.91604 5.44956L9.39804 3.51756C9.3637 3.38956 9.27995 3.28043 9.1652 3.21415C9.05044 3.14786 8.91407 3.12985 8.78604 3.16406Z" fill="#2028F9"/>
</svg>
