<svg width="16" height="16" viewBox="0 0 16 16" fill="none" xmlns="http://www.w3.org/2000/svg">
<path d="M8.47716 12.092C8.47716 12.9596 7.41347 13.3773 6.82315 12.7416L4.62409 10.3733C4.44348 10.1788 4.19004 10.0683 3.92462 10.0683H1.95453C1.42736 10.0683 1 9.64096 1 9.11378V6.88655C1 6.35937 1.42736 5.93202 1.95453 5.93202H3.92462C4.19004 5.93202 4.44348 5.8215 4.62409 5.627L6.82315 3.25877C7.41347 2.62305 8.47716 3.04075 8.47716 3.90829V12.092Z" stroke="black" stroke-width="1.4" stroke-linecap="round"/>
<path d="M11.1816 10.6353C11.6837 9.89676 11.9771 9.00499 11.9771 8.04468C11.9771 7.08438 11.6837 6.1926 11.1816 5.4541" stroke="black" stroke-width="1.4" stroke-linecap="round"/>
<path d="M13.3574 3.54492C14.3827 4.77309 14.9996 6.35397 14.9996 8.07894C14.9996 9.80391 14.3827 11.3848 13.3574 12.613" stroke="black" stroke-width="1.4" stroke-linecap="round"/>
</svg>
